<?xml version="1.0" encoding="UTF-8"?>
<!DOCTYPE svg PUBLIC "-//W3C//DTD SVG 1.1//EN" "http://www.w3.org/Graphics/SVG/1.1/DTD/svg11.dtd">
<!-- Creator: CorelDRAW 2020 (64 Bit) -->
<svg xmlns="http://www.w3.org/2000/svg" xml:space="preserve" width="6.6928mm" height="6.9606mm" version="1.1" style="shape-rendering:geometricPrecision; text-rendering:geometricPrecision; image-rendering:optimizeQuality; fill-rule:evenodd; clip-rule:evenodd"
viewBox="0 0 11.37 11.82"
 xmlns:xlink="http://www.w3.org/1999/xlink"
 xmlns:xodm="http://www.corel.com/coreldraw/odm/2003">
 <defs>
  <style type="text/css">
   <![CDATA[
    .fil0 {fill:url(#id0);fill-rule:nonzero}
   ]]>
  </style>
  <linearGradient id="id0" gradientUnits="userSpaceOnUse" x1="1.26" y1="1.28" x2="8.57" y2="9.82">
   <stop offset="0" style="stop-opacity:1; stop-color:#B58855"/>
   <stop offset="0.329412" style="stop-opacity:1; stop-color:#CEAA7D"/>
   <stop offset="0.501961" style="stop-opacity:1; stop-color:#E8CCA5"/>
   <stop offset="0.670588" style="stop-opacity:1; stop-color:#CFAA7D"/>
   <stop offset="1" style="stop-opacity:1; stop-color:#B58855"/>
  </linearGradient>
 </defs>
 <g id="Camada_x0020_1">
  <metadata id="CorelCorpID_0Corel-Layer"/>
  <path class="fil0" d="M0.8 1.31c-0.06,-0.04 -0.12,-0.07 -0.2,-0.1 -0.07,0.04 -0.15,0.09 -0.22,0.12 0.13,-0.01 0.28,-0.01 0.42,-0.02zm-0.16 0.2c0.1,-0.05 0.2,-0.09 0.31,-0.11 -0.18,0 -0.37,0.01 -0.55,0.02 0.09,0.02 0.17,0.05 0.26,0.09l-0.01 0zm0.45 0.17c0.22,-0.07 0.44,-0.15 0.66,-0.21 -0.13,-0.02 -0.27,-0.05 -0.38,-0.07 0,0 -0.01,0 -0.01,0 -0.2,0.04 -0.4,0.07 -0.59,0.15 0.11,0.04 0.22,0.09 0.32,0.12l0 0.01zm0.45 0.18c0.26,-0.07 0.5,-0.17 0.75,-0.29 -0.1,-0.01 -0.21,-0.04 -0.32,-0.05 -0.25,0.07 -0.5,0.15 -0.75,0.22 0.11,0.05 0.22,0.09 0.32,0.12zm1.3 -0.22c-0.11,-0.01 -0.25,-0.02 -0.4,-0.05 -0.23,0.13 -0.48,0.25 -0.72,0.32 0.37,0.07 0.75,-0.12 1.13,-0.27l0 0zm-0.53 -0.61c-0.06,-0.04 -0.12,-0.06 -0.18,-0.07 0.02,0.04 0.05,0.06 0.07,0.1 0.05,0.07 0.09,0.18 0.13,0.26 0.2,0.01 0.39,0.04 0.54,0.05 -0.18,-0.11 -0.37,-0.22 -0.56,-0.33l0 0zm-0.74 -0.15c0.06,0.05 0.12,0.1 0.18,0.15 0.07,0.06 0.13,0.15 0.17,0.25 0.1,0 0.2,0.01 0.29,0.02 -0.01,-0.01 -0.01,-0.04 -0.02,-0.05 -0.06,-0.12 -0.13,-0.23 -0.22,-0.34 -0.13,-0.02 -0.27,-0.04 -0.4,-0.02zm-0.45 0.1c0.12,0.1 0.25,0.2 0.36,0.29 0.1,-0.01 0.22,-0.01 0.34,0 -0.04,-0.07 -0.1,-0.13 -0.16,-0.2 -0.07,-0.06 -0.15,-0.11 -0.21,-0.18 -0.11,0.01 -0.22,0.05 -0.33,0.09l0 0zm-0.42 0.17c0.12,0.06 0.23,0.15 0.37,0.15 0.06,0 0.12,0 0.18,0 0.02,0 0.06,-0.01 0.1,-0.01 -0.11,-0.1 -0.22,-0.18 -0.33,-0.27 -0.11,0.04 -0.22,0.09 -0.32,0.13zm3.16 0.54c0.01,0 0.02,-0.01 0.02,-0.01 -0.16,0 -0.32,0 -0.49,-0.01 -0.01,0 -0.02,0.01 -0.04,0.01 -0.1,0.01 -0.18,0.02 -0.27,0.05 0.2,0.2 0.53,0.07 0.76,-0.04l0.01 0zm0.96 -0.36c-0.05,-0.04 -0.1,-0.06 -0.15,-0.1 -0.32,-0.27 -0.53,-0.77 -0.96,-0.85 0.11,0.33 0.29,0.61 0.6,0.8 0.15,0.09 0.33,0.12 0.5,0.15l0 -0zm-0.39 1.03c-0.11,0.2 -0.25,0.37 -0.4,0.5 0.49,0.04 0.87,-0.36 1.04,-0.82 0.05,-0.13 0.1,-0.26 0.16,-0.36 -0.04,0 -0.07,0 -0.11,0 -0.29,0.12 -0.49,0.38 -0.69,0.69l0 -0.01zm1.05 -0.98c0.01,0 0.01,0 0.01,0.01 0.2,0 0.39,-0.01 0.59,-0.01 0.49,0 0.99,-0.01 1.48,-0.01 -0.22,-0.11 -0.4,-0.29 -0.64,-0.37 -0.13,-0.05 -0.28,-0.05 -0.42,-0.04 0,0.01 -0.01,0.02 -0.01,0.02 -0.07,0.15 -0.16,0.29 -0.33,0.34 -0.04,0.01 -0.06,-0.02 -0.06,-0.06 0.01,-0.1 0.06,-0.2 0.13,-0.26 -0.27,0.09 -0.54,0.23 -0.78,0.37 0,0 0.01,0 0.01,0l0.01 0zm1.99 0.28c0.01,0 0.02,-0.01 0.04,-0.01 -0.05,0 -0.09,0 -0.12,0 -0.48,0 -0.96,0.01 -1.43,0.01 0.48,0.23 1.01,0.22 1.52,0zm-1.3 0.83c-0.07,0.11 -0.07,0.23 -0.1,0.37 0.1,-0.06 0.17,-0.13 0.25,-0.23 0.07,-0.11 0.12,-0.25 0.18,-0.37 0.02,-0.04 0.04,-0.07 0.06,-0.11 -0.16,0.07 -0.29,0.2 -0.39,0.36l0 -0.01zm1.66 -0.47c0.02,0.02 0.06,0.04 0.09,0.05 -0.05,-0.11 0.04,-0.21 0.02,-0.32 -0.01,-0.05 0.04,-0.07 0.07,-0.05 0.06,0.06 0.1,0.12 0.12,0.21 0.02,0.1 0.07,0.28 0.18,0.28 0.01,0 0.01,0 0.02,0 0.28,-0.21 0.56,-0.45 0.87,-0.4 -0.26,-0.21 -0.74,-0.23 -1.17,-0.21 -0.17,0.06 -0.36,0.13 -0.53,0.21 0.11,0.06 0.2,0.13 0.31,0.21l0 0.02zm0.78 0.21c0.15,-0.01 0.54,-0.11 0.78,-0.06 -0.01,-0.04 -0.01,-0.07 -0.02,-0.11 -0.01,-0.05 -0.02,-0.09 -0.05,-0.12 -0.31,-0.13 -0.6,0.09 -0.86,0.28 0.05,0 0.1,0 0.15,0l0 0.01zm-0.12 -1.43c-0.17,-0.21 -0.43,-0.27 -0.63,-0.43 0.04,0.27 0.16,0.5 0.39,0.67 0.13,0.1 0.29,0.15 0.45,0.22 -0.06,-0.16 -0.11,-0.33 -0.22,-0.47l0 -0zm0.86 9.9c0.07,0.25 0.18,0.45 0.26,0.69 0.13,-0.34 0.36,-0.67 0.29,-1.07 -0.04,-0.2 -0.2,-0.45 -0.28,-0.61 0,0.05 0.02,0.2 0.02,0.25 -0.05,1.4 -0.1,0.59 -0.17,-0.01l-0.01 -0.28c-0.12,0.29 -0.23,0.66 -0.11,1.04l0 -0zm0.45 -1.55c0.15,-0.22 0.02,-0.48 -0.09,-0.69 -0.02,-0.04 -0.04,-0.07 -0.06,-0.11l0.01 0.96c0.05,-0.05 0.1,-0.1 0.13,-0.16l0 0zm-0.45 -2.53c-0.09,0.2 -0.18,0.38 -0.21,0.59 -0.02,0.18 0.07,0.36 0.18,0.52 0.01,-0.05 0.02,-0.11 0.04,-0.16 0,-0.32 -0.01,-0.63 -0.01,-0.94zm-0.78 3.1c0.04,-0.02 0.07,-0.06 0.11,-0.09 0.33,-0.22 0.47,-0.44 0.55,-0.82 0.05,-0.2 0.04,-0.38 0.06,-0.56 -0.25,0.48 -0.59,0.92 -0.72,1.47zm0.76 -4.51c-0.02,0.09 -0.04,0.17 -0.05,0.26 0.02,0.05 0.04,0.09 0.06,0.13 0,-0.12 0,-0.26 -0.01,-0.38l0 -0.01zm-0.29 -0.58c0,0.13 0.02,0.25 0.05,0.37 0.12,-0.21 0.2,-0.43 0.21,-0.69 0,-0.02 0.01,-0.04 0.02,-0.05 0,-0.1 0,-0.21 0,-0.31 -0.15,0.18 -0.27,0.39 -0.28,0.67zm-0.78 1.86c0.34,-0.2 0.71,-0.4 0.82,-0.81 0.04,-0.12 0.05,-0.23 0.06,-0.34 -0.01,-0.02 -0.02,-0.05 -0.02,-0.06 -0.29,0.4 -0.69,0.75 -0.86,1.23l0 -0.01zm0.01 -2.08c-0.17,0 -0.34,0.09 -0.49,0.18 0.06,0.01 0.11,0.02 0.17,0.05 0.11,0.04 0.15,0.12 0.28,0.12 0.13,0 0.23,-0.09 0.32,-0.17 -0.11,0.02 -0.23,0.05 -0.34,0.04 -0.06,0 -0.06,-0.1 0,-0.1 0.15,0.01 0.29,-0.01 0.43,-0.07 -0.12,-0.01 -0.23,-0.06 -0.37,-0.05zm1.57 2.82c0.07,0.45 0.4,0.63 0.72,0.85 -0.02,-0.17 -0.06,-0.33 -0.15,-0.49 -0.13,-0.25 -0.36,-0.47 -0.53,-0.69 -0.04,-0.05 -0.07,-0.1 -0.11,-0.15 0.02,0.16 0.04,0.32 0.06,0.48l0 0zm-0.17 -3.91c0.05,-0.11 0.11,-0.22 0.15,-0.33 0,0 0,-0.01 0,-0.02 0,0 0,0 0,0 0.06,-0.18 0.09,-0.37 0.05,-0.58 -0.02,-0.12 -0.1,-0.25 -0.2,-0.36 0.07,0.32 0.04,0.66 0,0.99 -0.01,0.12 -0.02,0.25 -0.04,0.37 0.01,-0.02 0.02,-0.05 0.04,-0.07l-0 0zm1.1 -0.7c0.09,-0.06 0.15,-0.15 0.21,-0.22 -0.38,0.04 -0.74,0.17 -0.93,0.52 0.27,-0.02 0.52,-0.12 0.72,-0.29zm-10.71 -1.29c0.54,-0.29 1.12,-0.76 1.75,-0.71 0.58,0.05 1.03,0.49 1.55,0.74 0.36,0.01 0.72,0.02 1.08,0.01 -0.12,-0.04 -0.25,-0.09 -0.37,-0.17 -0.31,-0.22 -0.47,-0.59 -0.55,-0.93 -0.01,-0.06 0.02,-0.12 0.09,-0.12 0.32,0 0.54,0.16 0.75,0.4 0.32,0.37 0.56,0.61 1.01,0.76 0.07,-0.04 0.13,-0.07 0.21,-0.11 -0.02,0 -0.06,0 -0.09,0 -0.12,0 -0.2,-0.07 -0.32,-0.1 -0.04,-0.01 -0.05,-0.07 -0.01,-0.09 0.1,-0.05 0.18,-0.06 0.28,-0.06 0.05,0 0.11,0.01 0.16,0.02 0.06,0.01 0.2,0.07 0.26,0.05 0.01,-0.01 0.02,0 0.04,0 0.25,-0.11 0.49,-0.2 0.76,-0.21 0.11,0 0.22,0.01 0.32,0.04 -0.01,-0.01 -0.02,-0.02 -0.04,-0.05 -0.09,-0.12 -0.11,-0.28 -0.1,-0.43 0,0 0,-0.01 0,-0.01 0,-0.02 0.04,-0.06 0.07,-0.04 0.12,0.07 0.21,0.16 0.28,0.28 0.1,0.17 0.09,0.39 0.27,0.52 0,0 0,0 0,0 0.13,0.09 0.27,0.16 0.42,0.2 0.15,0 0.28,0 0.43,0 0.01,0 0.01,0 0.02,0 0,0 0,0 0,0 0.01,0 0.01,0 0.02,0 0.04,0 0.07,-0.01 0.12,-0.01 -0.18,-0.09 -0.37,-0.16 -0.5,-0.31 -0.23,-0.23 -0.32,-0.6 -0.28,-0.92 0.01,-0.11 0.13,-0.12 0.18,-0.02 0.09,0.2 0.31,0.26 0.47,0.34 0.11,0.06 0.21,0.15 0.29,0.23 0.17,0.18 0.21,0.5 0.34,0.71 0.11,0.02 0.21,0.05 0.31,0.11 -0.02,-0.04 -0.04,-0.07 -0.06,-0.11 -0.1,-0.23 -0.07,-0.49 0.15,-0.63 0.16,-0.1 0.45,0.01 0.48,0.22 0.02,0.21 -0.16,0.39 -0.37,0.31 -0.05,-0.02 -0.02,-0.11 0.02,-0.09 0.27,0.11 0.39,-0.43 -0.04,-0.36 -0.18,0.02 -0.22,0.25 -0.2,0.39 0.02,0.16 0.13,0.31 0.22,0.44 0.29,0.21 0.58,0.52 0.59,0.87 0,0.02 0,0.05 0,0.07 0.29,-0.29 0.75,-0.39 1.19,-0.38 0.11,0 0.12,0.15 0.02,0.18 -0.13,0.05 -0.22,0.21 -0.32,0.31 -0.09,0.09 -0.18,0.15 -0.28,0.21 -0.22,0.13 -0.48,0.2 -0.74,0.2 0,0.01 -0.01,0.02 -0.01,0.04 0,0 0,0 0,0 0,0 0,0.01 -0.01,0.01 -0.11,0.27 -0.25,0.53 -0.32,0.81 0,0.43 0.01,0.86 0.01,1.29 0,0.28 0.01,0.56 0.01,0.83 0.1,0.47 0.58,0.91 0.86,1.26 0.21,0.27 0.25,0.55 0.28,0.88 0.01,0.07 -0.06,0.16 -0.13,0.11 -0.29,-0.23 -0.64,-0.36 -0.85,-0.69 -0.06,-0.1 -0.11,-0.21 -0.13,-0.33 0,0.27 0.01,0.54 0.01,0.81 0.1,0.16 0.22,0.36 0.28,0.55 0,0 0.01,0 0.01,0.01 0.12,0.13 0.34,0.16 0.5,0.25 0.15,0.09 0.17,0.18 0.22,0.33 0.01,0.04 -0.02,0.06 -0.06,0.06 -0.17,-0.05 -0.36,-0.07 -0.5,-0.18 -0.05,-0.04 -0.1,-0.09 -0.13,-0.13 0,0 -0.01,-0.02 -0.02,-0.05 -0.02,0.17 -0.15,0.32 -0.28,0.43 0.11,0.38 0.42,0.71 0.42,1.13 -0.01,0.43 -0.37,0.77 -0.4,1.2 -0.01,0.12 -0.17,0.12 -0.18,0 -0.05,-0.48 -0.37,-0.87 -0.42,-1.34 -0.05,-0.43 0.12,-0.74 0.31,-1.1l0 -0.32c-0.01,0.06 -0.04,0.11 -0.05,0.17 -0.18,0.45 -0.55,0.54 -0.83,0.9 -0.05,0.06 -0.17,0.01 -0.16,-0.06 0.05,-0.44 0.17,-0.83 0.4,-1.21 0.21,-0.36 0.43,-0.64 0.55,-0.97 -0.04,-0.05 -0.06,-0.09 -0.1,-0.13 -0.06,-0.09 -0.1,-0.16 -0.12,-0.25 -0.04,0.1 -0.09,0.2 -0.15,0.29 -0.11,0.15 -0.27,0.17 -0.42,0.27 -0.04,0.02 -0.09,-0.02 -0.06,-0.06 0.06,-0.15 0.12,-0.29 0.23,-0.4 0.12,-0.12 0.29,-0.18 0.37,-0.36 0,-0.01 0.01,-0.01 0.01,-0.02 0.04,-0.27 0.21,-0.54 0.28,-0.82 0,-0.17 0,-0.33 -0.01,-0.5 0,0 0,0 0,-0.01 -0.02,-0.07 -0.05,-0.15 -0.09,-0.22 -0.02,0.18 -0.06,0.37 -0.17,0.53 -0.21,0.31 -0.63,0.48 -0.93,0.66 -0.07,0.05 -0.15,-0.02 -0.13,-0.11 0.12,-0.64 0.69,-1.05 1.03,-1.58 -0.07,-0.2 -0.11,-0.39 -0.09,-0.6 0,-0.04 0.01,-0.07 0.02,-0.11 -0.06,0.05 -0.12,0.1 -0.2,0.13 0,0 -0.01,0.01 -0.01,0.01 -0.17,0.12 -0.26,0.31 -0.48,0.34 -0.06,0.01 -0.15,0.02 -0.2,-0.01 -0.15,-0.09 -0.27,-0.15 -0.43,-0.17 0,0 -0.01,0 -0.01,0 0,0 0,0 0,0 -0.04,0 -0.04,-0.05 -0.02,-0.07 0,0 0.01,-0.01 0.01,-0.01 0.16,-0.12 0.34,-0.22 0.54,-0.26 0.22,-0.05 0.4,0.07 0.61,0.05 0,0 0,0 0,0 0.11,-0.06 0.2,-0.16 0.27,-0.26 0,0 0,0 0,-0.01 -0.07,0.02 -0.15,0.05 -0.22,0.06 -0.12,0.01 -0.21,-0.06 -0.33,-0.1 -0.04,-0.01 -0.05,-0.06 -0.01,-0.09 0.22,-0.12 0.47,0.01 0.7,-0.07 0.04,-0.04 0.06,-0.07 0.1,-0.11 0,-0.01 0,-0.01 0,-0.02 0.01,-0.49 0.15,-1.02 0.09,-1.52 -0.05,-0.02 -0.12,-0.02 -0.2,-0.02 0,0 -0.01,0 -0.01,0 -0.17,0.04 -0.23,0.22 -0.34,0.33 -0.1,0.1 -0.23,0.13 -0.37,0.13 -0.06,0 -0.06,-0.07 -0.01,-0.1 0.07,-0.02 0.11,-0.12 0.15,-0.18 0.04,-0.05 0.07,-0.1 0.12,-0.13 0,0 0.01,-0.01 0.02,-0.01 -0.15,0.02 -0.28,0.02 -0.42,0.01 -0.06,0.05 -0.12,0.09 -0.18,0.12 0,0 -0.01,0.01 -0.01,0.01 -0.07,0.05 -0.13,0.11 -0.18,0.18 -0.05,0.06 -0.06,0.13 -0.12,0.2 -0.1,0.1 -0.22,0.13 -0.34,0.16 -0.05,0.01 -0.07,-0.05 -0.04,-0.09 0.07,-0.05 0.11,-0.15 0.16,-0.22 0.02,-0.04 0.06,-0.07 0.1,-0.11 -0.05,0 -0.11,0 -0.16,-0.01 -0.06,-0.01 -0.04,-0.1 0.02,-0.09 0.22,0.05 0.43,-0.05 0.63,-0.18 -0.01,0 -0.02,0 -0.02,-0.01 -0.01,0 -0.02,0 -0.04,-0.01 -0.11,-0.04 -0.21,-0.07 -0.31,-0.13 -0.16,-0.1 -0.28,-0.22 -0.45,-0.28 -0.1,0.04 -0.21,0.07 -0.31,0.11 -0.01,0.01 -0.02,0.01 -0.04,0.02 -0.31,0.07 -0.39,0.36 -0.53,0.61 -0.12,0.25 -0.31,0.39 -0.55,0.52 -0.09,0.05 -0.16,-0.05 -0.12,-0.13 0.05,-0.12 0.04,-0.27 0.07,-0.4 0.02,-0.11 0.09,-0.21 0.15,-0.31 0.09,-0.11 0.18,-0.21 0.31,-0.28 -0.28,-0.05 -0.55,-0.17 -0.8,-0.34 -0.02,0 -0.06,0 -0.09,0 -0.22,0.11 -0.26,0.44 -0.36,0.65 -0.09,0.18 -0.21,0.33 -0.36,0.47 -0.28,0.26 -0.69,0.33 -1.04,0.21 -0.07,-0.02 -0.1,-0.13 -0.02,-0.17 0.44,-0.21 0.59,-0.71 0.91,-1.07 0.02,-0.02 0.05,-0.06 0.09,-0.09 -0.18,0 -0.37,0 -0.55,0 -0.17,0.06 -0.34,0.15 -0.52,0.2 0,0.01 -0.01,0.01 -0.02,0.02 -0.18,0.11 -0.18,0.29 -0.31,0.44 -0.1,0.11 -0.22,0.17 -0.37,0.18 -0.04,0 -0.06,-0.05 -0.04,-0.09 0.11,-0.12 0.15,-0.28 0.23,-0.42 0.04,-0.05 0.07,-0.09 0.12,-0.11 -0.11,-0.01 -0.2,-0.06 -0.27,-0.17 -0.42,0.12 -0.81,0.36 -1.26,0.34 -0.61,-0.02 -1.01,-0.63 -1.64,-0.55 -0.1,0.01 -0.12,-0.13 -0.05,-0.17l0.02 0.06z"/>
 </g>
</svg>
