<?xml version="1.0" encoding="UTF-8"?>
<!DOCTYPE svg PUBLIC "-//W3C//DTD SVG 1.1//EN" "http://www.w3.org/Graphics/SVG/1.1/DTD/svg11.dtd">
<!-- Creator: CorelDRAW 2020 (64 Bit) -->
<svg xmlns="http://www.w3.org/2000/svg" xml:space="preserve" width="6.6672mm" height="6.9744mm" version="1.1" style="shape-rendering:geometricPrecision; text-rendering:geometricPrecision; image-rendering:optimizeQuality; fill-rule:evenodd; clip-rule:evenodd"
viewBox="0 0 11.88 12.43"
 xmlns:xlink="http://www.w3.org/1999/xlink"
 xmlns:xodm="http://www.corel.com/coreldraw/odm/2003">
 <defs>
  <style type="text/css">
   <![CDATA[
    .fil0 {fill:url(#id0);fill-rule:nonzero}
   ]]>
  </style>
  <linearGradient id="id0" gradientUnits="userSpaceOnUse" x1="9.71" y1="9.95" x2="1.53" y2="1.76">
   <stop offset="0" style="stop-opacity:1; stop-color:#B58855"/>
   <stop offset="0.329412" style="stop-opacity:1; stop-color:#CEAA7D"/>
   <stop offset="0.501961" style="stop-opacity:1; stop-color:#E8CCA5"/>
   <stop offset="0.670588" style="stop-opacity:1; stop-color:#CFAA7D"/>
   <stop offset="1" style="stop-opacity:1; stop-color:#B58855"/>
  </linearGradient>
 </defs>
 <g id="Camada_x0020_1">
  <metadata id="CorelCorpID_0Corel-Layer"/>
  <path class="fil0" d="M11.06 11.1c0.07,0.04 0.13,0.07 0.2,0.1 0.08,-0.04 0.16,-0.08 0.24,-0.13 -0.15,0.01 -0.29,0.02 -0.44,0.02zm0.16 -0.21c-0.1,0.05 -0.21,0.08 -0.31,0.11 0.19,-0.01 0.39,-0.01 0.58,-0.03 -0.09,-0.02 -0.18,-0.05 -0.27,-0.08zm-0.47 -0.18c-0.23,0.07 -0.46,0.15 -0.7,0.22 0.14,0.02 0.28,0.05 0.4,0.07 0.01,0 0.01,-0.01 0.01,-0.01 0.21,-0.04 0.43,-0.07 0.62,-0.15 -0.11,-0.04 -0.22,-0.09 -0.34,-0.13l-0.01 0zm-0.48 -0.19c-0.27,0.07 -0.53,0.17 -0.78,0.31 0.1,0.01 0.22,0.04 0.33,0.05 0.26,-0.07 0.52,-0.15 0.79,-0.23 -0.11,-0.04 -0.22,-0.09 -0.34,-0.13zm-1.36 0.24c0.11,0.01 0.26,0.03 0.42,0.05 0.24,-0.14 0.49,-0.25 0.76,-0.34 -0.38,-0.07 -0.79,0.13 -1.19,0.28l0.01 0zm0.55 0.64c0.06,0.04 0.13,0.06 0.19,0.08 -0.02,-0.04 -0.05,-0.07 -0.07,-0.1 -0.04,-0.07 -0.08,-0.19 -0.14,-0.28 -0.21,-0.01 -0.41,-0.04 -0.56,-0.05 0.19,0.11 0.39,0.24 0.59,0.34l0 0.01zm0.76 0.15c-0.07,-0.05 -0.13,-0.1 -0.19,-0.16 -0.08,-0.07 -0.14,-0.16 -0.19,-0.25 -0.1,-0.01 -0.2,-0.01 -0.3,-0.02 0.01,0.02 0.01,0.04 0.03,0.06 0.06,0.13 0.14,0.25 0.23,0.35 0.14,0.03 0.28,0.04 0.42,0.02zm0.47 -0.1c-0.13,-0.1 -0.25,-0.2 -0.37,-0.31 -0.11,0.01 -0.23,0.01 -0.36,0 0.04,0.07 0.1,0.14 0.16,0.2 0.07,0.07 0.15,0.12 0.22,0.19 0.11,-0.02 0.23,-0.05 0.34,-0.09l0 0.01zm0.44 -0.19c-0.13,-0.07 -0.25,-0.15 -0.39,-0.16 -0.06,0 -0.13,0 -0.19,0 -0.03,0.01 -0.07,0.01 -0.1,0.01 0.11,0.1 0.23,0.19 0.34,0.28 0.11,-0.04 0.22,-0.09 0.34,-0.15l0 0.01zm-3.32 -0.56c-0.01,0.01 -0.02,0.01 -0.03,0.01 0.17,0 0.34,0.01 0.51,0.01 0.01,-0.01 0.02,-0.01 0.04,-0.01 0.1,-0.01 0.19,-0.02 0.28,-0.05 -0.21,-0.21 -0.56,-0.08 -0.8,0.04l-0 -0.01zm-1 0.37c0.05,0.03 0.1,0.07 0.16,0.1 0.34,0.28 0.55,0.81 1,0.89 -0.11,-0.35 -0.31,-0.65 -0.63,-0.84 -0.16,-0.09 -0.34,-0.13 -0.52,-0.16l-0.01 0zm0.41 -1.08c0.12,-0.2 0.25,-0.38 0.43,-0.52 -0.52,-0.04 -0.91,0.37 -1.09,0.87 -0.05,0.14 -0.1,0.27 -0.16,0.38 0.04,0 0.07,0 0.11,0 0.31,-0.13 0.52,-0.4 0.72,-0.73l-0 0zm-1.11 1.03c-0.01,0 -0.01,-0.01 -0.02,-0.01 -0.21,0.01 -0.42,0.01 -0.62,0.01 -0.52,0.01 -1.04,0.01 -1.56,0.01 0.23,0.12 0.42,0.31 0.67,0.39 0.15,0.04 0.29,0.05 0.44,0.04 0,-0.01 0.01,-0.02 0.02,-0.03 0.07,-0.16 0.17,-0.31 0.34,-0.36 0.04,-0.01 0.07,0.02 0.06,0.06 -0.01,0.1 -0.07,0.2 -0.14,0.27 0.28,-0.08 0.56,-0.24 0.82,-0.38 -0.01,0 -0.01,0 -0.01,-0.01l-0.01 0.01zm-2.08 -0.29c-0.01,0.01 -0.02,0.01 -0.04,0.01 0.04,0 0.09,-0.01 0.13,-0.01 0.5,-0.01 1.01,-0.01 1.51,-0.01 -0.5,-0.25 -1.06,-0.23 -1.59,0.01l-0.01 0zm1.36 -0.87c0.07,-0.12 0.08,-0.25 0.1,-0.38 -0.1,0.07 -0.18,0.14 -0.25,0.25 -0.07,0.12 -0.13,0.26 -0.19,0.39 -0.02,0.04 -0.04,0.08 -0.07,0.12 0.17,-0.07 0.31,-0.2 0.41,-0.37zm-1.74 0.49c-0.03,-0.02 -0.06,-0.04 -0.09,-0.06 0.05,0.12 -0.04,0.22 -0.02,0.34 0.01,0.05 -0.04,0.08 -0.08,0.04 -0.07,-0.06 -0.1,-0.13 -0.13,-0.22 -0.02,-0.1 -0.07,-0.29 -0.2,-0.3 -0.01,0 -0.01,0 -0.02,-0.01 -0.3,0.22 -0.59,0.47 -0.92,0.42 0.26,0.22 0.77,0.24 1.23,0.22 0.19,-0.06 0.37,-0.14 0.55,-0.22 -0.11,-0.06 -0.21,-0.13 -0.32,-0.22l0.01 0.01zm-0.83 -0.22c-0.15,0.01 -0.56,0.12 -0.82,0.06 0.01,0.04 0.01,0.07 0.02,0.12 0.01,0.04 0.03,0.08 0.05,0.13 0.32,0.13 0.64,-0.1 0.9,-0.3 -0.05,0 -0.1,0 -0.16,0l0.01 -0.01zm0.13 1.5c0.18,0.22 0.46,0.28 0.66,0.45 -0.03,-0.28 -0.17,-0.53 -0.42,-0.71 -0.15,-0.1 -0.31,-0.16 -0.47,-0.22 0.07,0.16 0.12,0.34 0.23,0.49zm-0.91 -10.39c-0.08,-0.25 -0.19,-0.48 -0.27,-0.72 -0.14,0.37 -0.37,0.71 -0.31,1.12 0.04,0.21 0.2,0.48 0.3,0.64 0,-0.04 -0.02,-0.21 -0.02,-0.25 0.05,-1.47 0.1,-0.62 0.18,0.01l0.01 0.3c0.13,-0.31 0.24,-0.7 0.11,-1.09zm-0.48 1.62c-0.16,0.23 -0.02,0.49 0.09,0.72 0.02,0.04 0.04,0.08 0.07,0.12l-0.01 -1c-0.05,0.05 -0.1,0.1 -0.14,0.17l0 -0.01zm0.48 2.65c0.09,-0.2 0.19,-0.4 0.22,-0.61 0.02,-0.19 -0.07,-0.37 -0.19,-0.54 -0.01,0.05 -0.03,0.11 -0.04,0.17 0.01,0.33 0.01,0.66 0.01,0.99l0 -0.01zm0.82 -3.26c-0.04,0.03 -0.07,0.06 -0.12,0.09 -0.34,0.23 -0.49,0.46 -0.58,0.86 -0.04,0.2 -0.04,0.4 -0.07,0.6 0.26,-0.5 0.62,-0.97 0.76,-1.55l0 0zm-0.79 4.74c0.02,-0.09 0.04,-0.17 0.05,-0.27 -0.02,-0.04 -0.04,-0.09 -0.06,-0.14 0,0.13 0.01,0.27 0.01,0.4l0 0.01zm0.31 0.6c0.01,-0.13 -0.02,-0.26 -0.06,-0.39 -0.13,0.22 -0.21,0.45 -0.22,0.72 0,0.02 -0.01,0.04 -0.02,0.05 0,0.1 0,0.22 0,0.32 0.16,-0.19 0.28,-0.41 0.3,-0.7zm0.82 -1.96c-0.37,0.2 -0.75,0.43 -0.87,0.85 -0.04,0.13 -0.05,0.25 -0.07,0.37 0.01,0.02 0.02,0.04 0.03,0.07 0.31,-0.42 0.72,-0.79 0.9,-1.28l0.01 0zm-0.01 2.19c0.19,-0.01 0.36,-0.09 0.51,-0.19 -0.06,-0.01 -0.12,-0.03 -0.18,-0.05 -0.11,-0.04 -0.15,-0.13 -0.29,-0.12 -0.15,0 -0.24,0.09 -0.34,0.18 0.12,-0.03 0.24,-0.04 0.37,-0.04 0.06,0 0.06,0.1 0,0.1 -0.16,-0.01 -0.31,0.01 -0.45,0.07 0.13,0.02 0.25,0.06 0.38,0.06l0 -0.01zm-1.64 -2.96c-0.07,-0.48 -0.42,-0.65 -0.76,-0.88 0.03,0.18 0.06,0.34 0.16,0.52 0.14,0.25 0.37,0.49 0.55,0.72 0.04,0.05 0.08,0.1 0.12,0.15 -0.02,-0.16 -0.04,-0.33 -0.07,-0.5l-0 -0zm0.18 4.11c-0.06,0.12 -0.11,0.23 -0.15,0.35 0,0.01 0,0.01 -0.01,0.02 0,0 0,0 0,0 -0.06,0.19 -0.09,0.38 -0.04,0.61 0.02,0.13 0.1,0.26 0.2,0.37 -0.08,-0.34 -0.04,-0.7 0,-1.05 0.01,-0.13 0.02,-0.25 0.04,-0.38 -0.01,0.03 -0.02,0.05 -0.04,0.08l0 -0.01zm-1.15 0.73c-0.08,0.07 -0.15,0.15 -0.22,0.23 0.4,-0.04 0.78,-0.18 0.97,-0.54 -0.28,0.03 -0.53,0.13 -0.76,0.31zm11.23 1.35c-0.56,0.31 -1.17,0.79 -1.83,0.74 -0.6,-0.04 -1.08,-0.52 -1.62,-0.76 -0.37,-0.01 -0.76,-0.02 -1.13,-0.02 0.13,0.04 0.26,0.09 0.38,0.18 0.31,0.22 0.49,0.61 0.58,0.98 0.01,0.06 -0.03,0.13 -0.1,0.13 -0.34,0.01 -0.57,-0.17 -0.79,-0.42 -0.33,-0.38 -0.58,-0.65 -1.05,-0.8 -0.07,0.04 -0.14,0.07 -0.22,0.11 0.03,0 0.06,0 0.1,0 0.13,0.01 0.21,0.08 0.33,0.1 0.04,0.01 0.05,0.07 0.01,0.09 -0.1,0.04 -0.19,0.06 -0.3,0.06 -0.06,0 -0.11,-0.01 -0.17,-0.03 -0.07,-0.01 -0.2,-0.08 -0.27,-0.05 -0.01,0.01 -0.03,0.01 -0.04,0 -0.25,0.11 -0.52,0.2 -0.8,0.21 -0.11,0.01 -0.22,-0.01 -0.33,-0.04 0.01,0.01 0.03,0.03 0.04,0.05 0.09,0.13 0.12,0.3 0.1,0.46 0,0.01 0,0.01 -0.01,0.01 -0.01,0.03 -0.04,0.06 -0.07,0.04 -0.13,-0.07 -0.22,-0.16 -0.3,-0.29 -0.1,-0.18 -0.09,-0.42 -0.28,-0.54 0,0 0,0 0,0 -0.15,-0.09 -0.29,-0.16 -0.44,-0.2 -0.15,0 -0.3,0 -0.45,0.01 -0.01,0 -0.01,0 -0.02,0 0,0 0,0 0,0 -0.01,0 -0.01,0 -0.02,0 -0.04,0.01 -0.08,0.01 -0.13,0.01 0.19,0.08 0.38,0.16 0.53,0.31 0.25,0.25 0.34,0.63 0.29,0.97 -0.01,0.11 -0.15,0.13 -0.19,0.03 -0.08,-0.21 -0.31,-0.27 -0.49,-0.36 -0.11,-0.06 -0.22,-0.15 -0.3,-0.25 -0.18,-0.19 -0.22,-0.52 -0.36,-0.75 -0.11,-0.02 -0.22,-0.06 -0.31,-0.11 0.02,0.04 0.04,0.07 0.06,0.11 0.11,0.24 0.08,0.52 -0.16,0.65 -0.17,0.1 -0.47,-0.01 -0.5,-0.22 -0.03,-0.22 0.17,-0.4 0.39,-0.31 0.06,0.02 0.03,0.12 -0.02,0.1 -0.28,-0.12 -0.4,0.46 0.04,0.37 0.19,-0.03 0.23,-0.25 0.2,-0.41 -0.03,-0.17 -0.14,-0.32 -0.23,-0.47 -0.31,-0.22 -0.61,-0.54 -0.61,-0.92 0,-0.03 0,-0.05 0,-0.08 -0.31,0.31 -0.78,0.41 -1.24,0.4 -0.11,0 -0.13,-0.16 -0.02,-0.19 0.14,-0.05 0.23,-0.22 0.33,-0.32 0.08,-0.09 0.19,-0.16 0.29,-0.22 0.23,-0.14 0.5,-0.2 0.77,-0.21 0.01,-0.01 0.01,-0.03 0.01,-0.04 0,0 0,0 0,0 0,-0.01 0.01,-0.01 0.01,-0.01 0.11,-0.28 0.26,-0.55 0.33,-0.85 0.01,-0.45 -0.01,-0.91 -0.01,-1.35 -0.01,-0.29 -0.01,-0.58 -0.01,-0.88 -0.1,-0.49 -0.61,-0.95 -0.9,-1.32 -0.22,-0.28 -0.25,-0.58 -0.3,-0.93 -0.01,-0.07 0.07,-0.17 0.14,-0.11 0.31,0.24 0.67,0.37 0.89,0.72 0.07,0.1 0.11,0.22 0.14,0.35 -0.01,-0.28 -0.01,-0.56 -0.01,-0.85 -0.11,-0.17 -0.23,-0.37 -0.29,-0.58 -0.01,0 -0.01,-0.01 -0.01,-0.01 -0.13,-0.14 -0.37,-0.16 -0.52,-0.25 -0.16,-0.08 -0.18,-0.19 -0.24,-0.35 -0.01,-0.04 0.03,-0.07 0.06,-0.06 0.18,0.04 0.37,0.07 0.52,0.19 0.05,0.04 0.1,0.09 0.13,0.14 0,0 0.01,0.02 0.02,0.04 0.02,-0.18 0.16,-0.33 0.29,-0.46 -0.11,-0.4 -0.44,-0.74 -0.43,-1.18 0.01,-0.45 0.38,-0.81 0.43,-1.26 0.01,-0.13 0.18,-0.13 0.19,0 0.05,0.5 0.38,0.91 0.44,1.41 0.05,0.45 -0.13,0.78 -0.33,1.15l0.01 0.33c0.01,-0.06 0.03,-0.12 0.06,-0.18 0.2,-0.48 0.58,-0.56 0.88,-0.94 0.05,-0.07 0.17,-0.01 0.16,0.07 -0.04,0.46 -0.18,0.88 -0.42,1.27 -0.22,0.37 -0.45,0.67 -0.58,1.03 0.04,0.04 0.07,0.09 0.1,0.13 0.06,0.08 0.1,0.17 0.13,0.25 0.04,-0.1 0.09,-0.21 0.16,-0.31 0.11,-0.15 0.28,-0.19 0.43,-0.28 0.04,-0.03 0.08,0.03 0.07,0.07 -0.07,0.15 -0.13,0.31 -0.25,0.43 -0.13,0.13 -0.31,0.19 -0.39,0.37 -0.01,0.01 -0.01,0.01 -0.01,0.02 -0.04,0.28 -0.22,0.56 -0.3,0.86 0,0.18 0.01,0.35 0.01,0.53 0,0 0,0.01 0,0.01 0.02,0.08 0.05,0.16 0.08,0.23 0.03,-0.19 0.07,-0.38 0.19,-0.55 0.22,-0.31 0.65,-0.5 0.98,-0.69 0.07,-0.04 0.16,0.03 0.14,0.11 -0.13,0.67 -0.72,1.12 -1.08,1.65 0.07,0.2 0.11,0.41 0.09,0.64 -0.01,0.04 -0.01,0.08 -0.02,0.12 0.07,-0.05 0.13,-0.1 0.21,-0.14 0,-0.01 0.01,-0.01 0.01,-0.01 0.18,-0.13 0.26,-0.33 0.5,-0.35 0.06,-0.01 0.15,-0.02 0.21,0.01 0.16,0.08 0.28,0.15 0.45,0.18 0.01,0 0.01,0 0.01,0 0,0 0,0 0,0 0.04,0.01 0.04,0.04 0.02,0.07 0,0.01 -0.01,0.01 -0.01,0.01 -0.17,0.13 -0.35,0.22 -0.57,0.27 -0.22,0.04 -0.43,-0.07 -0.65,-0.05 0,0 0,0 -0.01,0 -0.11,0.07 -0.21,0.16 -0.28,0.27 0,0 -0.01,0.01 -0.01,0.01 0.07,-0.03 0.15,-0.05 0.23,-0.06 0.13,-0.01 0.22,0.07 0.34,0.1 0.04,0.01 0.05,0.07 0.01,0.09 -0.24,0.13 -0.49,-0.01 -0.73,0.07 -0.03,0.04 -0.07,0.08 -0.1,0.12 0,0.01 0,0.01 0,0.03 -0.01,0.52 -0.15,1.07 -0.09,1.59 0.05,0.02 0.13,0.03 0.2,0.03 0.01,0 0.01,-0.01 0.01,-0.01 0.18,-0.04 0.25,-0.23 0.37,-0.35 0.1,-0.1 0.24,-0.15 0.38,-0.15 0.06,0 0.06,0.07 0.01,0.1 -0.08,0.03 -0.11,0.13 -0.16,0.19 -0.04,0.05 -0.08,0.1 -0.13,0.14 -0.01,0.01 -0.01,0.01 -0.02,0.01 0.15,-0.02 0.29,-0.02 0.44,-0.01 0.06,-0.04 0.13,-0.09 0.19,-0.13 0,-0.01 0.01,-0.01 0.01,-0.01 0.07,-0.05 0.14,-0.12 0.19,-0.19 0.04,-0.07 0.07,-0.15 0.12,-0.2 0.1,-0.1 0.23,-0.14 0.37,-0.17 0.05,-0.01 0.08,0.06 0.04,0.09 -0.08,0.06 -0.11,0.16 -0.16,0.23 -0.03,0.04 -0.07,0.08 -0.1,0.11 0.05,0 0.11,0 0.17,0.01 0.06,0.01 0.04,0.1 -0.02,0.1 -0.24,-0.05 -0.46,0.05 -0.66,0.19 0.01,0 0.02,0.01 0.03,0.01 0.01,0 0.02,0 0.04,0.01 0.11,0.03 0.22,0.08 0.32,0.14 0.17,0.1 0.29,0.23 0.47,0.3 0.1,-0.04 0.22,-0.08 0.32,-0.11 0.01,-0.01 0.02,-0.01 0.04,-0.02 0.32,-0.07 0.42,-0.37 0.55,-0.64 0.13,-0.26 0.32,-0.41 0.58,-0.54 0.09,-0.05 0.17,0.04 0.13,0.13 -0.05,0.13 -0.04,0.29 -0.07,0.42 -0.03,0.11 -0.09,0.22 -0.16,0.32 -0.08,0.12 -0.19,0.22 -0.32,0.29 0.3,0.05 0.58,0.19 0.83,0.36 0.03,0 0.06,0 0.09,0 0.23,-0.12 0.27,-0.46 0.37,-0.68 0.09,-0.19 0.22,-0.35 0.37,-0.49 0.3,-0.28 0.72,-0.34 1.09,-0.22 0.07,0.02 0.1,0.14 0.02,0.18 -0.46,0.22 -0.62,0.75 -0.95,1.12 -0.03,0.03 -0.06,0.06 -0.09,0.08 0.19,0 0.39,0 0.58,0 0.17,-0.07 0.37,-0.16 0.55,-0.21 0,-0.01 0.01,-0.01 0.02,-0.02 0.19,-0.11 0.19,-0.31 0.32,-0.46 0.1,-0.12 0.23,-0.19 0.39,-0.19 0.04,0 0.06,0.05 0.04,0.08 -0.11,0.13 -0.15,0.3 -0.25,0.43 -0.04,0.05 -0.08,0.08 -0.13,0.11 0.11,0.01 0.21,0.07 0.29,0.18 0.44,-0.13 0.85,-0.37 1.32,-0.36 0.64,0.02 1.05,0.66 1.72,0.58 0.1,-0.01 0.13,0.14 0.05,0.19l-0.01 0.02z"/>
 </g>
</svg>
