<?xml version="1.0" encoding="UTF-8"?>
<!DOCTYPE svg PUBLIC "-//W3C//DTD SVG 1.1//EN" "http://www.w3.org/Graphics/SVG/1.1/DTD/svg11.dtd">
<!-- Creator: CorelDRAW 2020 (64 Bit) -->
<svg xmlns="http://www.w3.org/2000/svg" xml:space="preserve" width="6.6688mm" height="17.3448mm" version="1.1" style="shape-rendering:geometricPrecision; text-rendering:geometricPrecision; image-rendering:optimizeQuality; fill-rule:evenodd; clip-rule:evenodd"
viewBox="0 0 15.88 41.3"
 xmlns:xlink="http://www.w3.org/1999/xlink"
 xmlns:xodm="http://www.corel.com/coreldraw/odm/2003">
 <defs>
  <style type="text/css">
   <![CDATA[
    .fil1 {fill:url(#id0);fill-rule:nonzero}
    .fil0 {fill:url(#id1);fill-rule:nonzero}
   ]]>
  </style>
  <linearGradient id="id0" gradientUnits="userSpaceOnUse" x1="13.47" y1="38.97" x2="2.41" y2="27.04">
   <stop offset="0" style="stop-opacity:1; stop-color:#B58855"/>
   <stop offset="0.329412" style="stop-opacity:1; stop-color:#CEAA7D"/>
   <stop offset="0.501961" style="stop-opacity:1; stop-color:#E8CCA5"/>
   <stop offset="0.670588" style="stop-opacity:1; stop-color:#CFAA7D"/>
   <stop offset="1" style="stop-opacity:1; stop-color:#B58855"/>
  </linearGradient>
  <linearGradient id="id1" gradientUnits="userSpaceOnUse" xlink:href="#id0" x1="13.47" y1="2.33" x2="2.41" y2="14.26">
  </linearGradient>
 </defs>
 <g id="Camada_x0020_1">
  <metadata id="CorelCorpID_0Corel-Layer"/>
  <g id="_2331152672672">
   <path class="fil0" d="M14.77 1.8c0.09,-0.05 0.18,-0.1 0.27,-0.14 0.11,0.06 0.21,0.11 0.32,0.17 -0.2,-0.02 -0.39,-0.03 -0.59,-0.03zm0.22 0.28c-0.14,-0.07 -0.28,-0.11 -0.42,-0.15 0.26,0.01 0.52,0.02 0.78,0.04 -0.12,0.03 -0.24,0.07 -0.36,0.11zm-0.63 0.24c-0.31,-0.1 -0.62,-0.2 -0.93,-0.29 0.19,-0.03 0.37,-0.07 0.54,-0.1 0.01,0 0.01,0.01 0.02,0.01 0.28,0.06 0.57,0.1 0.83,0.2 -0.15,0.06 -0.3,0.12 -0.45,0.18zm-0.64 0.25c-0.36,-0.1 -0.71,-0.23 -1.04,-0.41 0.14,-0.02 0.29,-0.05 0.44,-0.07 0.35,0.1 0.7,0.2 1.05,0.31 -0.15,0.06 -0.3,0.12 -0.45,0.17zm-1.82 -0.32c0.15,-0.01 0.35,-0.04 0.56,-0.07 0.32,0.19 0.66,0.34 1.02,0.45 -0.51,0.1 -1.06,-0.18 -1.59,-0.38zm0.74 -0.85c0.08,-0.05 0.17,-0.08 0.25,-0.11 -0.03,0.05 -0.07,0.09 -0.1,0.14 -0.06,0.1 -0.11,0.25 -0.19,0.37 -0.28,0.02 -0.55,0.05 -0.75,0.07 0.26,-0.15 0.52,-0.32 0.79,-0.46zm1.02 -0.2c-0.09,0.07 -0.17,0.14 -0.26,0.21 -0.11,0.09 -0.19,0.21 -0.25,0.34 -0.13,0.01 -0.27,0.02 -0.4,0.03 0.01,-0.03 0.02,-0.05 0.04,-0.08 0.08,-0.17 0.19,-0.33 0.31,-0.47 0.19,-0.04 0.38,-0.05 0.56,-0.03zm0.63 0.14c-0.17,0.13 -0.34,0.27 -0.5,0.41 -0.15,-0.01 -0.31,-0.01 -0.48,-0 0.06,-0.1 0.13,-0.19 0.22,-0.27 0.1,-0.09 0.2,-0.16 0.3,-0.25 0.15,0.03 0.31,0.07 0.46,0.12zm0.59 0.25c-0.17,0.09 -0.33,0.2 -0.52,0.21 -0.08,-0 -0.17,-0 -0.25,-0 -0.04,-0.01 -0.09,-0.01 -0.14,-0.02 0.15,-0.13 0.31,-0.26 0.46,-0.38 0.15,0.06 0.3,0.12 0.45,0.19zm-4.43 0.75c-0.01,-0.01 -0.03,-0.01 -0.04,-0.02 0.23,-0 0.45,-0.01 0.68,-0.02 0.01,0.01 0.03,0.01 0.05,0.01 0.13,0.01 0.26,0.03 0.38,0.07 -0.28,0.28 -0.75,0.11 -1.07,-0.05zm-1.33 -0.5c0.07,-0.04 0.14,-0.09 0.21,-0.14 0.45,-0.37 0.74,-1.08 1.34,-1.19 -0.15,0.47 -0.41,0.87 -0.84,1.12 -0.21,0.12 -0.46,0.17 -0.7,0.21zm0.55 1.44c0.16,0.27 0.34,0.51 0.57,0.7 -0.69,0.05 -1.22,-0.5 -1.46,-1.16 -0.07,-0.19 -0.13,-0.36 -0.22,-0.51 0.05,0 0.1,0 0.15,0 0.41,0.17 0.69,0.53 0.96,0.97zm-1.48 -1.38c-0.01,0 -0.02,0.01 -0.03,0.01 -0.28,-0.01 -0.56,-0.01 -0.83,-0.01 -0.69,-0.01 -1.39,-0.02 -2.08,-0.02 0.31,-0.16 0.56,-0.41 0.9,-0.52 0.2,-0.06 0.39,-0.07 0.59,-0.05 0,0.02 0.01,0.03 0.03,0.04 0.1,0.21 0.23,0.41 0.46,0.48 0.05,0.02 0.09,-0.03 0.08,-0.08 -0.02,-0.14 -0.09,-0.27 -0.19,-0.36 0.38,0.11 0.75,0.32 1.1,0.51 -0.01,0 -0.01,0 -0.02,0.01zm-2.78 0.39c-0.02,-0.01 -0.03,-0.02 -0.05,-0.02 0.06,0 0.12,0.01 0.17,0.01 0.67,0.01 1.35,0.02 2.02,0.02 -0.67,0.32 -1.41,0.31 -2.13,-0.01zm1.82 1.16c0.1,0.16 0.11,0.34 0.14,0.51 -0.13,-0.09 -0.24,-0.19 -0.34,-0.33 -0.1,-0.16 -0.17,-0.35 -0.26,-0.52 -0.03,-0.06 -0.06,-0.11 -0.09,-0.16 0.23,0.1 0.41,0.27 0.55,0.5zm-2.33 -0.65c-0.04,0.03 -0.08,0.05 -0.12,0.08 0.07,-0.16 -0.06,-0.29 -0.03,-0.45 0.01,-0.07 -0.06,-0.11 -0.11,-0.06 -0.09,0.08 -0.14,0.18 -0.17,0.3 -0.03,0.13 -0.1,0.39 -0.27,0.4 -0.01,0 -0.02,0 -0.03,0.01 -0.4,-0.29 -0.79,-0.63 -1.23,-0.56 0.35,-0.3 1.03,-0.32 1.64,-0.29 0.25,0.08 0.5,0.19 0.74,0.29 -0.15,0.08 -0.28,0.18 -0.43,0.3zm-1.11 0.3c-0.2,-0.01 -0.75,-0.16 -1.1,-0.08 0.01,-0.05 0.02,-0.1 0.03,-0.16 0.01,-0.06 0.04,-0.12 0.07,-0.17 0.43,-0.18 0.85,0.13 1.2,0.4 -0.07,0 -0.14,0 -0.21,0zm0.17 -2c0.24,-0.3 0.61,-0.38 0.88,-0.6 -0.04,0.38 -0.23,0.71 -0.56,0.95 -0.2,0.14 -0.42,0.21 -0.63,0.3 0.09,-0.22 0.16,-0.46 0.31,-0.65zm-1.21 13.88c-0.11,0.34 -0.25,0.64 -0.36,0.96 -0.19,-0.49 -0.5,-0.95 -0.41,-1.49 0.05,-0.28 0.27,-0.64 0.4,-0.86 -0,0.06 -0.03,0.28 -0.03,0.34 0.07,1.96 0.13,0.83 0.24,-0.01l0.01 -0.4c0.17,0.41 0.32,0.93 0.15,1.46zm-0.64 -2.17c-0.21,-0.31 -0.03,-0.66 0.12,-0.96 0.03,-0.05 0.06,-0.11 0.09,-0.16l-0.02 1.34c-0.07,-0.07 -0.13,-0.14 -0.19,-0.23zm0.64 -3.54c0.12,0.27 0.26,0.53 0.3,0.82 0.03,0.25 -0.1,0.49 -0.26,0.72 -0.02,-0.07 -0.04,-0.15 -0.06,-0.22 0.01,-0.44 0.01,-0.88 0.02,-1.32zm1.09 4.35c-0.05,-0.04 -0.1,-0.08 -0.16,-0.12 -0.46,-0.31 -0.65,-0.62 -0.77,-1.15 -0.06,-0.27 -0.06,-0.54 -0.09,-0.8 0.35,0.67 0.83,1.3 1.02,2.07zm-1.06 -6.33c0.03,0.11 0.05,0.23 0.07,0.36 -0.03,0.06 -0.05,0.12 -0.08,0.19 0,-0.18 0.01,-0.36 0.01,-0.54zm0.41 -0.8c0.01,0.18 -0.03,0.35 -0.08,0.52 -0.17,-0.29 -0.28,-0.6 -0.29,-0.96 -0,-0.03 -0.01,-0.05 -0.03,-0.07 0,-0.14 -0,-0.29 -0,-0.43 0.21,0.26 0.38,0.55 0.4,0.94zm1.1 2.62c-0.49,-0.27 -1,-0.57 -1.16,-1.13 -0.05,-0.17 -0.07,-0.33 -0.09,-0.49 0.01,-0.03 0.03,-0.06 0.04,-0.09 0.41,0.56 0.96,1.05 1.2,1.71zm-0.01 -2.92c0.25,0.01 0.48,0.12 0.68,0.26 -0.08,0.02 -0.16,0.04 -0.24,0.07 -0.15,0.06 -0.2,0.17 -0.39,0.16 -0.2,-0 -0.32,-0.12 -0.45,-0.24 0.16,0.04 0.32,0.06 0.49,0.05 0.08,-0 0.08,-0.14 0,-0.13 -0.21,0.01 -0.42,-0.02 -0.6,-0.1 0.17,-0.03 0.33,-0.08 0.51,-0.08zm-2.19 3.95c-0.1,0.64 -0.56,0.87 -1.02,1.18 0.04,-0.24 0.08,-0.46 0.21,-0.69 0.19,-0.34 0.5,-0.65 0.74,-0.96 0.05,-0.07 0.11,-0.13 0.16,-0.2 -0.03,0.22 -0.06,0.44 -0.09,0.67zm0.24 -5.49c-0.08,-0.16 -0.15,-0.31 -0.2,-0.47 -0,-0.01 -0,-0.02 -0.01,-0.03 -0,-0 -0,-0 -0,-0 -0.08,-0.25 -0.12,-0.51 -0.06,-0.81 0.03,-0.18 0.14,-0.35 0.27,-0.5 -0.11,0.45 -0.06,0.93 -0,1.4 0.02,0.17 0.03,0.34 0.05,0.51 -0.02,-0.04 -0.03,-0.07 -0.05,-0.11zm-1.54 -0.98c-0.11,-0.09 -0.2,-0.2 -0.29,-0.31 0.53,0.05 1.04,0.24 1.3,0.72 -0.37,-0.04 -0.71,-0.17 -1.01,-0.41zm15.01 -1.8c-0.75,-0.41 -1.56,-1.06 -2.45,-0.99 -0.8,0.06 -1.44,0.69 -2.16,1.02 -0.5,0.02 -1.01,0.03 -1.51,0.03 0.18,-0.05 0.35,-0.12 0.51,-0.24 0.42,-0.3 0.66,-0.82 0.78,-1.31 0.02,-0.08 -0.04,-0.17 -0.13,-0.17 -0.45,-0.01 -0.76,0.23 -1.05,0.56 -0.44,0.51 -0.78,0.87 -1.4,1.07 -0.1,-0.05 -0.19,-0.1 -0.29,-0.15 0.04,0 0.08,0 0.13,0 0.17,-0.01 0.28,-0.11 0.44,-0.13 0.05,-0.01 0.07,-0.1 0.02,-0.12 -0.13,-0.06 -0.26,-0.08 -0.4,-0.08 -0.08,0 -0.15,0.02 -0.23,0.04 -0.09,0.02 -0.27,0.11 -0.36,0.07 -0.02,-0.01 -0.04,-0.01 -0.06,0 -0.34,-0.15 -0.69,-0.27 -1.07,-0.28 -0.15,-0.01 -0.3,0.02 -0.44,0.06 0.02,-0.02 0.04,-0.04 0.06,-0.07 0.12,-0.17 0.16,-0.4 0.13,-0.61 -0,-0.01 -0,-0.01 -0.01,-0.02 -0.01,-0.04 -0.05,-0.08 -0.1,-0.05 -0.17,0.09 -0.3,0.22 -0.4,0.39 -0.14,0.24 -0.12,0.56 -0.38,0.72 -0,0 -0,0 -0,0 -0.2,0.12 -0.39,0.22 -0.59,0.27 -0.2,-0 -0.4,-0 -0.6,-0.01 -0.01,0 -0.02,-0 -0.03,-0 -0,-0 -0,-0 -0,-0 -0.01,-0 -0.02,-0 -0.03,-0 -0.06,-0.01 -0.11,-0.01 -0.17,-0.01 0.25,-0.11 0.51,-0.22 0.71,-0.42 0.33,-0.34 0.45,-0.84 0.39,-1.29 -0.02,-0.15 -0.2,-0.18 -0.26,-0.04 -0.11,0.28 -0.42,0.36 -0.66,0.48 -0.15,0.08 -0.29,0.2 -0.4,0.33 -0.24,0.26 -0.29,0.7 -0.48,1 -0.15,0.03 -0.3,0.08 -0.42,0.15 0.03,-0.05 0.06,-0.1 0.08,-0.15 0.15,-0.32 0.11,-0.69 -0.21,-0.87 -0.23,-0.14 -0.63,0.02 -0.67,0.3 -0.04,0.3 0.23,0.54 0.52,0.42 0.08,-0.03 0.04,-0.16 -0.03,-0.13 -0.38,0.16 -0.54,-0.61 0.06,-0.5 0.25,0.04 0.31,0.34 0.27,0.55 -0.04,0.23 -0.19,0.43 -0.31,0.63 -0.41,0.3 -0.81,0.72 -0.82,1.23 -0,0.04 0,0.07 0,0.11 -0.42,-0.41 -1.04,-0.55 -1.66,-0.53 -0.15,0 -0.17,0.21 -0.03,0.26 0.19,0.07 0.31,0.3 0.44,0.43 0.11,0.12 0.25,0.21 0.39,0.29 0.31,0.19 0.67,0.27 1.03,0.28 0.01,0.02 0.02,0.04 0.02,0.06 0,0 0,0 0,0 0,0.01 0.01,0.01 0.01,0.02 0.15,0.38 0.35,0.74 0.44,1.14 0.01,0.6 -0.01,1.21 -0.02,1.81 -0.01,0.39 -0.01,0.78 -0.02,1.17 -0.13,0.66 -0.81,1.27 -1.2,1.77 -0.29,0.38 -0.34,0.77 -0.4,1.24 -0.01,0.1 0.09,0.23 0.19,0.15 0.42,-0.32 0.89,-0.5 1.19,-0.96 0.09,-0.14 0.15,-0.3 0.19,-0.47 -0.01,0.38 -0.01,0.75 -0.02,1.13 -0.15,0.23 -0.31,0.49 -0.39,0.77 -0.01,0 -0.01,0.01 -0.02,0.02 -0.17,0.19 -0.49,0.22 -0.7,0.34 -0.21,0.11 -0.24,0.26 -0.32,0.47 -0.02,0.05 0.04,0.09 0.08,0.08 0.24,-0.06 0.5,-0.1 0.7,-0.25 0.07,-0.05 0.13,-0.12 0.18,-0.19 0,-0 0.01,-0.03 0.03,-0.06 0.03,0.24 0.21,0.45 0.39,0.61 -0.15,0.53 -0.59,0.99 -0.58,1.58 0.01,0.6 0.51,1.08 0.58,1.68 0.02,0.17 0.24,0.17 0.26,0 0.07,-0.67 0.51,-1.22 0.59,-1.88 0.07,-0.6 -0.18,-1.04 -0.44,-1.54l0.01 -0.44c0.02,0.08 0.04,0.16 0.08,0.24 0.27,0.64 0.77,0.75 1.17,1.26 0.07,0.09 0.23,0.02 0.22,-0.09 -0.06,-0.62 -0.24,-1.17 -0.56,-1.7 -0.3,-0.5 -0.6,-0.9 -0.78,-1.37 0.05,-0.06 0.09,-0.12 0.14,-0.18 0.08,-0.11 0.14,-0.23 0.17,-0.34 0.05,0.14 0.12,0.28 0.21,0.41 0.15,0.2 0.38,0.25 0.58,0.38 0.06,0.04 0.11,-0.04 0.09,-0.09 -0.09,-0.2 -0.17,-0.42 -0.33,-0.57 -0.17,-0.17 -0.42,-0.26 -0.52,-0.5 -0.01,-0.01 -0.01,-0.02 -0.02,-0.03 -0.06,-0.38 -0.29,-0.75 -0.4,-1.15 0,-0.24 0.01,-0.47 0.01,-0.71 0,-0 0,-0.01 0,-0.01 0.03,-0.11 0.07,-0.21 0.11,-0.31 0.04,0.26 0.09,0.51 0.25,0.73 0.3,0.43 0.87,0.67 1.31,0.92 0.1,0.06 0.21,-0.04 0.19,-0.15 -0.18,-0.9 -0.96,-1.49 -1.44,-2.21 0.1,-0.27 0.15,-0.55 0.12,-0.85 -0.01,-0.06 -0.02,-0.11 -0.03,-0.16 0.09,0.07 0.18,0.14 0.28,0.19 0,0.01 0.01,0.01 0.02,0.02 0.24,0.17 0.35,0.44 0.67,0.47 0.08,0.01 0.2,0.03 0.28,-0.01 0.21,-0.11 0.37,-0.2 0.6,-0.24 0.01,-0 0.01,-0 0.01,-0 0,0 0,0 0,-0 0.05,-0.01 0.06,-0.06 0.03,-0.1 -0,-0.01 -0.01,-0.02 -0.02,-0.02 -0.23,-0.18 -0.47,-0.3 -0.76,-0.36 -0.3,-0.06 -0.57,0.1 -0.87,0.07 -0,0 -0,0 -0.01,0 -0.15,-0.09 -0.28,-0.22 -0.38,-0.36 -0,-0 -0.01,-0.01 -0.01,-0.01 0.1,0.04 0.2,0.07 0.31,0.08 0.18,0.02 0.3,-0.09 0.46,-0.14 0.05,-0.02 0.07,-0.09 0.02,-0.12 -0.32,-0.17 -0.66,0.01 -0.98,-0.1 -0.04,-0.05 -0.09,-0.11 -0.14,-0.16 -0,-0.01 0,-0.02 -0,-0.04 -0.01,-0.69 -0.2,-1.43 -0.12,-2.13 0.07,-0.03 0.17,-0.04 0.27,-0.04 0.01,0 0.01,0.01 0.02,0.01 0.24,0.05 0.33,0.3 0.49,0.47 0.13,0.14 0.32,0.2 0.51,0.2 0.08,0 0.08,-0.1 0.02,-0.13 -0.11,-0.04 -0.15,-0.17 -0.21,-0.26 -0.05,-0.07 -0.11,-0.13 -0.17,-0.19 -0.01,-0.01 -0.02,-0.01 -0.03,-0.02 0.2,0.03 0.39,0.03 0.59,0.02 0.08,0.06 0.17,0.12 0.26,0.17 0,0.01 0.01,0.02 0.02,0.02 0.1,0.07 0.19,0.16 0.26,0.26 0.06,0.09 0.09,0.2 0.16,0.27 0.13,0.14 0.31,0.19 0.49,0.23 0.07,0.01 0.11,-0.08 0.05,-0.12 -0.11,-0.08 -0.15,-0.21 -0.22,-0.31 -0.04,-0.06 -0.09,-0.11 -0.14,-0.15 0.07,0 0.15,-0 0.23,-0.02 0.08,-0.02 0.05,-0.14 -0.03,-0.13 -0.32,0.07 -0.61,-0.07 -0.88,-0.26 0.01,-0 0.03,-0.01 0.04,-0.01 0.02,0 0.03,-0 0.05,-0.01 0.15,-0.04 0.3,-0.11 0.43,-0.19 0.23,-0.13 0.39,-0.31 0.63,-0.4 0.14,0.06 0.29,0.11 0.43,0.15 0.01,0.01 0.03,0.02 0.06,0.03 0.43,0.1 0.56,0.5 0.73,0.86 0.17,0.35 0.43,0.55 0.77,0.72 0.12,0.07 0.23,-0.06 0.18,-0.18 -0.07,-0.17 -0.05,-0.39 -0.1,-0.56 -0.04,-0.15 -0.12,-0.3 -0.21,-0.43 -0.11,-0.16 -0.26,-0.29 -0.43,-0.39 0.4,-0.07 0.78,-0.25 1.11,-0.48 0.04,0 0.08,0 0.12,0 0.31,0.16 0.36,0.61 0.5,0.91 0.12,0.26 0.3,0.47 0.5,0.66 0.4,0.37 0.96,0.46 1.46,0.29 0.1,-0.03 0.14,-0.19 0.03,-0.24 -0.62,-0.29 -0.83,-1 -1.27,-1.49 -0.04,-0.04 -0.08,-0.08 -0.12,-0.11 0.26,0 0.52,0 0.77,0 0.23,0.09 0.49,0.21 0.73,0.28 0,0.01 0.01,0.02 0.03,0.03 0.25,0.15 0.26,0.41 0.43,0.61 0.14,0.16 0.31,0.25 0.52,0.26 0.06,0 0.08,-0.07 0.05,-0.11 -0.15,-0.17 -0.2,-0.4 -0.33,-0.58 -0.05,-0.07 -0.11,-0.11 -0.18,-0.15 0.15,-0.02 0.28,-0.09 0.39,-0.24 0.59,0.18 1.13,0.5 1.77,0.48 0.85,-0.03 1.4,-0.88 2.3,-0.78 0.13,0.01 0.18,-0.19 0.07,-0.25z"/>
   <path class="fil1" d="M14.77 39.5c0.09,0.05 0.18,0.1 0.27,0.14 0.11,-0.06 0.21,-0.11 0.32,-0.17 -0.2,0.02 -0.39,0.03 -0.59,0.03zm0.22 -0.28c-0.14,0.07 -0.28,0.11 -0.42,0.15 0.26,-0.01 0.52,-0.02 0.78,-0.04 -0.12,-0.03 -0.24,-0.07 -0.36,-0.11zm-0.63 -0.24c-0.31,0.1 -0.62,0.2 -0.93,0.29 0.19,0.03 0.37,0.07 0.54,0.1 0.01,-0 0.01,-0.01 0.02,-0.01 0.28,-0.06 0.57,-0.1 0.83,-0.2 -0.15,-0.06 -0.3,-0.12 -0.45,-0.18zm-0.64 -0.25c-0.36,0.1 -0.71,0.23 -1.04,0.41 0.14,0.02 0.29,0.05 0.44,0.07 0.35,-0.1 0.7,-0.2 1.05,-0.31 -0.15,-0.06 -0.3,-0.12 -0.45,-0.17zm-1.82 0.32c0.15,0.01 0.35,0.04 0.56,0.07 0.32,-0.19 0.66,-0.34 1.02,-0.45 -0.51,-0.1 -1.06,0.18 -1.59,0.38zm0.74 0.85c0.08,0.05 0.17,0.08 0.25,0.11 -0.03,-0.05 -0.07,-0.09 -0.1,-0.14 -0.06,-0.1 -0.11,-0.25 -0.19,-0.37 -0.28,-0.02 -0.55,-0.05 -0.75,-0.07 0.26,0.15 0.52,0.32 0.79,0.46zm1.02 0.2c-0.09,-0.07 -0.17,-0.14 -0.26,-0.21 -0.11,-0.09 -0.19,-0.21 -0.25,-0.34 -0.13,-0.01 -0.27,-0.02 -0.4,-0.03 0.01,0.03 0.02,0.05 0.04,0.08 0.08,0.17 0.19,0.33 0.31,0.47 0.19,0.04 0.38,0.05 0.56,0.03zm0.63 -0.14c-0.17,-0.13 -0.34,-0.27 -0.5,-0.41 -0.15,0.01 -0.31,0.01 -0.48,0 0.06,0.1 0.13,0.19 0.22,0.27 0.1,0.09 0.2,0.16 0.3,0.25 0.15,-0.03 0.31,-0.07 0.46,-0.12zm0.59 -0.25c-0.17,-0.09 -0.33,-0.2 -0.52,-0.21 -0.08,0 -0.17,0 -0.25,0 -0.04,0.01 -0.09,0.01 -0.14,0.02 0.15,0.13 0.31,0.26 0.46,0.38 0.15,-0.06 0.3,-0.12 0.45,-0.2zm-4.43 -0.75c-0.01,0.01 -0.03,0.01 -0.04,0.02 0.23,0 0.45,0.01 0.68,0.02 0.01,-0.01 0.03,-0.01 0.05,-0.01 0.13,-0.01 0.26,-0.03 0.38,-0.07 -0.28,-0.28 -0.75,-0.11 -1.07,0.05zm-1.33 0.5c0.07,0.04 0.14,0.09 0.21,0.14 0.45,0.37 0.74,1.08 1.34,1.19 -0.15,-0.47 -0.41,-0.87 -0.84,-1.12 -0.21,-0.12 -0.46,-0.17 -0.7,-0.21zm0.55 -1.44c0.16,-0.27 0.34,-0.51 0.57,-0.7 -0.69,-0.05 -1.22,0.5 -1.46,1.16 -0.07,0.19 -0.13,0.36 -0.22,0.51 0.05,-0 0.1,-0 0.15,-0 0.41,-0.17 0.69,-0.53 0.96,-0.97zm-1.48 1.38c-0.01,-0 -0.02,-0.01 -0.03,-0.01 -0.28,0.01 -0.56,0.01 -0.83,0.01 -0.69,0.01 -1.39,0.02 -2.08,0.02 0.31,0.16 0.56,0.41 0.9,0.52 0.2,0.06 0.39,0.07 0.59,0.05 0,-0.02 0.01,-0.03 0.03,-0.04 0.1,-0.21 0.23,-0.41 0.46,-0.48 0.05,-0.02 0.09,0.03 0.08,0.08 -0.02,0.14 -0.09,0.27 -0.19,0.36 0.38,-0.11 0.75,-0.32 1.1,-0.51 -0.01,-0 -0.01,-0 -0.02,-0.01zm-2.78 -0.39c-0.02,0.01 -0.03,0.02 -0.05,0.02 0.06,-0 0.12,-0.01 0.17,-0.01 0.67,-0.01 1.35,-0.02 2.02,-0.02 -0.67,-0.33 -1.41,-0.31 -2.13,0.01zm1.82 -1.16c0.1,-0.16 0.11,-0.34 0.14,-0.51 -0.13,0.09 -0.24,0.19 -0.34,0.33 -0.1,0.16 -0.17,0.35 -0.26,0.52 -0.03,0.06 -0.06,0.11 -0.09,0.16 0.23,-0.1 0.41,-0.27 0.55,-0.5zm-2.33 0.65c-0.04,-0.03 -0.08,-0.05 -0.12,-0.08 0.07,0.16 -0.06,0.29 -0.03,0.45 0.01,0.07 -0.06,0.11 -0.11,0.06 -0.09,-0.08 -0.14,-0.18 -0.17,-0.3 -0.03,-0.13 -0.1,-0.39 -0.27,-0.4 -0.01,-0 -0.02,-0 -0.03,-0.01 -0.4,0.29 -0.79,0.63 -1.23,0.56 0.35,0.3 1.03,0.32 1.64,0.29 0.25,-0.08 0.5,-0.19 0.74,-0.29 -0.15,-0.08 -0.28,-0.18 -0.43,-0.3zm-1.11 -0.3c-0.2,0.01 -0.75,0.16 -1.1,0.08 0.01,0.05 0.02,0.1 0.03,0.16 0.01,0.06 0.04,0.11 0.07,0.17 0.43,0.18 0.85,-0.13 1.2,-0.4 -0.07,-0 -0.14,-0 -0.21,0zm0.17 2c0.24,0.3 0.61,0.38 0.88,0.6 -0.04,-0.38 -0.23,-0.71 -0.56,-0.95 -0.2,-0.14 -0.42,-0.21 -0.63,-0.3 0.09,0.22 0.16,0.46 0.31,0.65zm-1.21 -13.88c-0.11,-0.34 -0.25,-0.64 -0.36,-0.96 -0.19,0.49 -0.5,0.95 -0.41,1.49 0.05,0.28 0.27,0.64 0.4,0.86 -0,-0.06 -0.03,-0.28 -0.03,-0.34 0.07,-1.96 0.13,-0.83 0.24,0.01l0.01 0.4c0.17,-0.41 0.32,-0.93 0.15,-1.46zm-0.64 2.17c-0.21,0.31 -0.03,0.66 0.12,0.96 0.03,0.06 0.06,0.11 0.09,0.16l-0.02 -1.34c-0.07,0.07 -0.13,0.14 -0.19,0.23zm0.64 3.54c0.12,-0.27 0.26,-0.53 0.3,-0.82 0.03,-0.25 -0.1,-0.49 -0.26,-0.72 -0.02,0.07 -0.04,0.15 -0.06,0.23 0.01,0.44 0.01,0.88 0.02,1.32zm1.09 -4.35c-0.05,0.04 -0.1,0.08 -0.16,0.12 -0.46,0.31 -0.65,0.62 -0.77,1.15 -0.06,0.27 -0.06,0.54 -0.09,0.8 0.35,-0.67 0.83,-1.3 1.02,-2.07zm-1.06 6.33c0.03,-0.12 0.05,-0.23 0.07,-0.36 -0.03,-0.06 -0.05,-0.12 -0.08,-0.19 0,0.18 0.01,0.36 0.01,0.54zm0.41 0.8c0.01,-0.18 -0.03,-0.35 -0.08,-0.52 -0.17,0.29 -0.28,0.6 -0.29,0.96 -0,0.03 -0.01,0.05 -0.03,0.07 0,0.14 -0,0.29 -0,0.43 0.21,-0.26 0.38,-0.55 0.4,-0.94zm1.1 -2.62c-0.49,0.27 -1,0.57 -1.16,1.13 -0.05,0.17 -0.07,0.33 -0.09,0.49 0.01,0.03 0.03,0.06 0.04,0.09 0.41,-0.56 0.96,-1.05 1.2,-1.71zm-0.01 2.92c0.25,-0.01 0.48,-0.12 0.68,-0.26 -0.08,-0.02 -0.16,-0.04 -0.24,-0.07 -0.15,-0.06 -0.2,-0.17 -0.39,-0.16 -0.2,0 -0.32,0.12 -0.45,0.24 0.16,-0.04 0.32,-0.06 0.49,-0.05 0.08,0 0.08,0.14 0,0.13 -0.21,-0.01 -0.42,0.02 -0.6,0.1 0.17,0.03 0.33,0.08 0.51,0.08zm-2.19 -3.95c-0.1,-0.64 -0.56,-0.87 -1.02,-1.18 0.04,0.24 0.08,0.46 0.21,0.69 0.19,0.34 0.5,0.65 0.74,0.96 0.05,0.07 0.11,0.13 0.16,0.2 -0.03,-0.22 -0.06,-0.44 -0.09,-0.67zm0.24 5.49c-0.08,0.16 -0.15,0.31 -0.2,0.47 -0,0.01 -0,0.02 -0.01,0.03 -0,0 -0,0 -0,0 -0.08,0.25 -0.12,0.51 -0.06,0.81 0.03,0.18 0.14,0.35 0.27,0.5 -0.11,-0.45 -0.06,-0.93 -0,-1.4 0.02,-0.17 0.03,-0.34 0.05,-0.51 -0.02,0.04 -0.03,0.07 -0.05,0.11zm-1.54 0.98c-0.11,0.09 -0.2,0.2 -0.29,0.31 0.53,-0.05 1.04,-0.24 1.3,-0.72 -0.37,0.04 -0.71,0.17 -1.01,0.41zm15.01 1.8c-0.75,0.41 -1.56,1.06 -2.45,0.99 -0.8,-0.06 -1.44,-0.69 -2.16,-1.02 -0.5,-0.02 -1.01,-0.03 -1.51,-0.03 0.18,0.05 0.35,0.12 0.51,0.24 0.42,0.3 0.66,0.82 0.78,1.31 0.02,0.08 -0.04,0.17 -0.13,0.17 -0.45,0.01 -0.76,-0.23 -1.05,-0.56 -0.44,-0.51 -0.78,-0.87 -1.4,-1.07 -0.1,0.05 -0.19,0.1 -0.29,0.15 0.04,-0 0.08,-0 0.13,-0 0.17,0.01 0.28,0.11 0.44,0.13 0.05,0.01 0.07,0.1 0.02,0.12 -0.13,0.06 -0.26,0.08 -0.4,0.08 -0.08,-0 -0.15,-0.02 -0.23,-0.04 -0.09,-0.02 -0.27,-0.11 -0.36,-0.07 -0.02,0.01 -0.04,0.01 -0.06,-0 -0.34,0.15 -0.69,0.27 -1.07,0.28 -0.15,0.01 -0.3,-0.02 -0.44,-0.06 0.02,0.02 0.04,0.04 0.06,0.07 0.12,0.17 0.16,0.4 0.13,0.61 -0,0.01 -0,0.01 -0.01,0.02 -0.01,0.04 -0.05,0.08 -0.1,0.05 -0.17,-0.09 -0.3,-0.22 -0.4,-0.39 -0.14,-0.24 -0.12,-0.56 -0.38,-0.72 -0,-0 -0,-0 -0,-0 -0.2,-0.12 -0.39,-0.22 -0.59,-0.27 -0.2,0 -0.4,0 -0.6,0.01 -0.01,0 -0.02,0 -0.03,0 -0,0 -0,0 -0,0 -0.01,0 -0.02,0 -0.03,0 -0.06,0.01 -0.11,0.01 -0.17,0.01 0.25,0.11 0.51,0.22 0.71,0.42 0.33,0.34 0.45,0.84 0.39,1.29 -0.02,0.15 -0.2,0.18 -0.26,0.04 -0.11,-0.28 -0.42,-0.36 -0.66,-0.48 -0.15,-0.08 -0.29,-0.2 -0.4,-0.33 -0.24,-0.26 -0.29,-0.7 -0.48,-1 -0.15,-0.03 -0.3,-0.08 -0.42,-0.15 0.03,0.05 0.06,0.1 0.08,0.15 0.15,0.32 0.11,0.69 -0.21,0.87 -0.23,0.14 -0.63,-0.02 -0.67,-0.3 -0.04,-0.3 0.23,-0.54 0.52,-0.42 0.08,0.03 0.04,0.16 -0.03,0.13 -0.38,-0.16 -0.54,0.61 0.06,0.5 0.25,-0.04 0.31,-0.34 0.27,-0.55 -0.04,-0.23 -0.19,-0.43 -0.31,-0.63 -0.41,-0.3 -0.81,-0.72 -0.82,-1.23 -0,-0.04 0,-0.07 0,-0.11 -0.42,0.41 -1.04,0.55 -1.66,0.53 -0.15,-0 -0.17,-0.21 -0.03,-0.26 0.19,-0.07 0.31,-0.3 0.44,-0.43 0.11,-0.12 0.25,-0.21 0.39,-0.29 0.31,-0.19 0.67,-0.27 1.03,-0.28 0.01,-0.02 0.02,-0.04 0.02,-0.06 0,-0 0,-0 0,-0 0,-0.01 0.01,-0.01 0.01,-0.02 0.15,-0.38 0.35,-0.74 0.44,-1.14 0.01,-0.6 -0.01,-1.21 -0.02,-1.81 -0.01,-0.39 -0.01,-0.78 -0.02,-1.17 -0.13,-0.66 -0.81,-1.27 -1.2,-1.77 -0.29,-0.38 -0.34,-0.77 -0.4,-1.24 -0.01,-0.1 0.09,-0.23 0.19,-0.15 0.42,0.32 0.89,0.5 1.19,0.96 0.09,0.14 0.15,0.3 0.19,0.47 -0.01,-0.38 -0.01,-0.75 -0.02,-1.13 -0.15,-0.23 -0.31,-0.49 -0.39,-0.77 -0.01,-0 -0.01,-0.01 -0.02,-0.02 -0.17,-0.19 -0.49,-0.22 -0.7,-0.34 -0.21,-0.11 -0.24,-0.26 -0.32,-0.47 -0.02,-0.05 0.04,-0.09 0.08,-0.08 0.24,0.06 0.5,0.1 0.7,0.25 0.07,0.05 0.13,0.12 0.18,0.19 0,0 0.01,0.03 0.03,0.06 0.03,-0.24 0.21,-0.44 0.39,-0.61 -0.15,-0.53 -0.59,-0.99 -0.58,-1.58 0.01,-0.6 0.51,-1.08 0.58,-1.68 0.02,-0.17 0.24,-0.17 0.26,0 0.07,0.67 0.51,1.22 0.59,1.88 0.07,0.6 -0.18,1.04 -0.44,1.54l0.01 0.44c0.02,-0.08 0.04,-0.16 0.08,-0.24 0.27,-0.64 0.77,-0.75 1.17,-1.26 0.07,-0.09 0.23,-0.02 0.22,0.09 -0.06,0.62 -0.24,1.17 -0.56,1.7 -0.3,0.5 -0.6,0.9 -0.78,1.37 0.05,0.06 0.09,0.12 0.14,0.18 0.08,0.11 0.14,0.23 0.17,0.34 0.05,-0.14 0.12,-0.28 0.21,-0.41 0.15,-0.2 0.38,-0.25 0.58,-0.38 0.06,-0.04 0.11,0.04 0.09,0.09 -0.09,0.2 -0.17,0.42 -0.33,0.57 -0.17,0.17 -0.42,0.26 -0.52,0.5 -0.01,0.01 -0.01,0.02 -0.02,0.03 -0.06,0.38 -0.29,0.75 -0.4,1.15 0,0.24 0.01,0.47 0.01,0.71 0,0 0,0.01 0,0.01 0.03,0.11 0.07,0.21 0.11,0.31 0.04,-0.26 0.09,-0.51 0.25,-0.73 0.3,-0.42 0.87,-0.67 1.31,-0.92 0.1,-0.06 0.21,0.04 0.19,0.15 -0.18,0.9 -0.96,1.49 -1.44,2.21 0.1,0.27 0.15,0.55 0.12,0.85 -0.01,0.06 -0.02,0.11 -0.03,0.16 0.09,-0.07 0.18,-0.14 0.28,-0.19 0,-0.01 0.01,-0.01 0.02,-0.02 0.24,-0.17 0.35,-0.44 0.67,-0.47 0.08,-0.01 0.2,-0.03 0.28,0.01 0.21,0.11 0.37,0.2 0.6,0.24 0.01,0 0.01,0 0.01,0 0,0 0,0 0,0 0.05,0.01 0.06,0.06 0.03,0.1 -0,0.01 -0.01,0.02 -0.02,0.02 -0.23,0.18 -0.47,0.3 -0.76,0.36 -0.3,0.06 -0.57,-0.1 -0.87,-0.07 -0,0 -0,-0 -0.01,-0 -0.15,0.09 -0.28,0.22 -0.38,0.36 -0,0 -0.01,0.01 -0.01,0.01 0.1,-0.04 0.2,-0.07 0.31,-0.08 0.18,-0.02 0.3,0.09 0.46,0.14 0.05,0.02 0.07,0.09 0.02,0.12 -0.32,0.17 -0.66,-0.01 -0.98,0.1 -0.04,0.05 -0.09,0.11 -0.14,0.16 -0,0.01 0,0.02 -0,0.04 -0.01,0.69 -0.2,1.43 -0.12,2.13 0.07,0.03 0.17,0.04 0.27,0.04 0.01,-0 0.01,-0.01 0.02,-0.01 0.24,-0.05 0.33,-0.31 0.49,-0.47 0.13,-0.14 0.32,-0.2 0.51,-0.2 0.08,-0 0.08,0.1 0.02,0.13 -0.11,0.04 -0.15,0.17 -0.21,0.26 -0.05,0.07 -0.11,0.13 -0.17,0.19 -0.01,0.01 -0.02,0.01 -0.03,0.02 0.2,-0.03 0.39,-0.03 0.59,-0.02 0.08,-0.06 0.17,-0.12 0.26,-0.17 0,-0.01 0.01,-0.02 0.02,-0.02 0.1,-0.07 0.19,-0.16 0.26,-0.26 0.06,-0.09 0.09,-0.2 0.16,-0.27 0.13,-0.14 0.31,-0.19 0.49,-0.23 0.07,-0.01 0.11,0.08 0.05,0.12 -0.11,0.08 -0.15,0.21 -0.22,0.31 -0.04,0.06 -0.09,0.11 -0.14,0.15 0.07,-0 0.15,0 0.23,0.02 0.08,0.02 0.05,0.14 -0.03,0.13 -0.32,-0.07 -0.61,0.07 -0.88,0.26 0.01,0 0.03,0.01 0.04,0.01 0.02,-0 0.03,0 0.05,0.01 0.15,0.04 0.3,0.11 0.43,0.19 0.23,0.13 0.39,0.31 0.63,0.4 0.14,-0.06 0.29,-0.11 0.43,-0.15 0.01,-0.01 0.03,-0.02 0.06,-0.03 0.43,-0.1 0.56,-0.5 0.73,-0.86 0.17,-0.35 0.43,-0.55 0.77,-0.72 0.12,-0.07 0.23,0.06 0.18,0.18 -0.07,0.17 -0.05,0.39 -0.1,0.56 -0.04,0.15 -0.12,0.3 -0.21,0.43 -0.11,0.16 -0.26,0.29 -0.43,0.39 0.4,0.07 0.78,0.25 1.11,0.48 0.04,-0 0.08,-0 0.12,-0 0.31,-0.16 0.36,-0.61 0.5,-0.91 0.12,-0.26 0.3,-0.47 0.5,-0.66 0.4,-0.37 0.96,-0.46 1.46,-0.29 0.1,0.03 0.14,0.19 0.03,0.24 -0.62,0.29 -0.83,1 -1.27,1.49 -0.04,0.04 -0.08,0.08 -0.12,0.11 0.26,-0 0.52,-0 0.77,-0 0.23,-0.09 0.49,-0.21 0.73,-0.28 0,-0.01 0.01,-0.02 0.03,-0.03 0.25,-0.15 0.26,-0.41 0.43,-0.61 0.14,-0.16 0.31,-0.25 0.52,-0.26 0.06,-0 0.08,0.07 0.05,0.11 -0.15,0.17 -0.2,0.4 -0.33,0.58 -0.05,0.07 -0.11,0.11 -0.18,0.15 0.15,0.02 0.28,0.09 0.39,0.24 0.59,-0.18 1.13,-0.5 1.77,-0.48 0.85,0.03 1.4,0.88 2.3,0.78 0.13,-0.01 0.18,0.19 0.07,0.25z"/>
  </g>
 </g>
</svg>
